<svg width="580" height="400" xmlns="http://www.w3.org/2000/svg">
 <!-- Created with Method Draw - http://github.com/duopixel/Method-Draw/ -->
 <g>
  <title>background</title>
  <rect fill="#fff" id="canvas_background" height="402" width="582" y="-1" x="-1"/>
  <g display="none" overflow="visible" y="0" x="0" height="100%" width="100%" id="canvasGrid">
   <rect fill="url(#gridpattern)" stroke-width="0" y="0" x="0" height="100%" width="100%"/>
  </g>
 </g>
 <g>
  <title>Layer 1</title>
  <path id="svg_1" d="m119.990285,169.182831c-1.935269,0.165879 -3.913868,0.280555 -5.948829,0.280555l0,0c-1.820236,0 -3.588408,-0.090766 -5.313244,-0.225337l0,0l-14.93486,17.4832l-3.672925,-0.948361c-4.310839,-1.102545 -8.498068,-2.48577 -12.524641,-4.145541l0,0l-3.490693,-1.43848l0.898153,-21.960642c-3.17403,-2.023476 -6.135339,-4.27604 -8.877762,-6.745843l0,0l-23.612934,4.619819l-2.156497,-2.88513c-2.529661,-3.386662 -4.686145,-6.935569 -6.597407,-10.523683l0,0l-1.659717,-3.134001l16.03272,-16.163173c-1.002377,-3.422411 -1.6662,-6.955458 -2.008984,-10.555429l0,0l-21.246045,-10.231364l0.386149,-3.465965c0.455669,-4.14561 1.336414,-8.113201 2.388637,-11.926753l0,0l0.939457,-3.382972l23.697554,-2.987584c1.69,-3.248464 3.679545,-6.326958 5.920586,-9.219824l0,0l-9.042496,-20.277099l2.72928,-2.434379c3.208611,-2.845384 6.64303,-5.425904 10.226975,-7.785258l0,0l3.104606,-2.039035l20.456333,11.701421c3.447439,-1.44631 7.05311,-2.63585 10.78899,-3.54882l0,0l7.415424,-20.956844l3.822683,-0.264701c2.058906,-0.138273 4.271828,-0.300368 6.677756,-0.300368l0,0c2.399466,0 4.605789,0.162095 6.664785,0.300368l0,0l3.82258,0.264701l7.495656,21.174358c3.59272,0.912731 7.07483,2.078612 10.411562,3.493483l0,0l20.742727,-11.867739l3.115408,2.039255c3.584041,2.355402 7.024784,4.943796 10.227119,7.777366l0,0l2.740005,2.434379l-9.320204,20.877898c2.030704,2.68721 3.8617,5.532656 5.425976,8.52423l0,0l24.437406,3.082416l0.95021,3.382753c1.067413,3.809762 1.943942,7.777347 2.388568,11.930868l0,0l0.386266,3.465745l-21.988087,10.586981c-0.329703,3.284207 -0.915484,6.516879 -1.78983,9.666427l0,0l16.566403,16.669241l-1.666131,3.145545c-1.904822,3.60026 -4.050538,7.160881 -6.591028,10.535773l0,0l-2.156477,2.876879l-24.198688,-4.722298c-2.564387,2.335457 -5.341308,4.485348 -8.309299,6.425743l0,0l0.922015,22.391397l-3.499393,1.442477c-4.030995,1.651885 -8.211639,3.039012 -12.522333,4.141601l0,0l-3.686103,0.948436l-14.967388,-17.526697l0,0l0.000007,0.000006zm19.204491,5.607856c1.290935,-0.39136 2.560067,-0.81431 3.816111,-1.264835l0,0l-0.863434,-21.14647l2.722784,-1.592733c4.07863,-2.410494 7.792811,-5.303422 11.090519,-8.587297l0,0l2.195528,-2.18926l22.897096,4.465459c0.687746,-1.047308 1.353718,-2.118226 1.995855,-3.212777l0,0l-15.661651,-15.772026l0.971937,-2.817803c1.381906,-4.058571 2.167313,-8.409698 2.399411,-12.950132l0,0l0.143194,-2.95622l20.803402,-10.013951c-0.216909,-1.2133 -0.466298,-2.418581 -0.750584,-3.628004l0,0l-23.146526,-2.916255l-1.245181,-2.72693c-1.861513,-4.078503 -4.323941,-7.895926 -7.26362,-11.417014l0,0l-1.943908,-2.347453l8.803881,-19.723806c-1.019695,-0.814279 -2.065409,-1.604516 -3.13929,-2.371169l0,0l-19.651383,11.235256l-2.894186,-1.391262c-4.286866,-2.054965 -8.923192,-3.615977 -13.813302,-4.627567l0,0l-3.163104,-0.659901l-7.096433,-20.044044c-0.689985,-0.031508 -1.360331,-0.047469 -2.013345,-0.047469l0,0c-0.666102,0 -1.336427,0.015961 -2.030725,0.047469l0,0l-7.04647,19.913689l-3.208755,0.624402c-4.97475,0.972001 -9.7194,2.55681 -14.138686,4.639431l0,0l-2.887697,1.367283l-19.332516,-11.057294c-1.067378,0.766653 -2.11531,1.55689 -3.126216,2.371169l0,0l8.569468,19.206163l-2.0132,2.351217c-3.139311,3.671301 -5.74928,7.694436 -7.706193,12.01383l0,0l-1.238747,2.738669l-22.402424,2.821574c-0.284176,1.209422 -0.535783,2.414704 -0.746231,3.628004l0,0l20.08319,9.670229l0.123609,2.979572c0.210392,4.80967 1.093438,9.425467 2.612042,13.740933l0,0l0.993746,2.837322l-15.167172,15.282075c0.6379,1.098536 1.301729,2.16944 1.996054,3.216686l0,0l22.272112,-4.366819l2.217303,2.189329c3.416957,3.40672 7.3199,6.366585 11.619923,8.824781l0,0l2.774848,1.57659l-0.84832,20.822517c1.258324,0.450524 2.53181,0.873474 3.822656,1.264835l0,0l14.097548,-16.511048l3.219508,0.359451c2.429866,0.280637 4.794613,0.462432 7.148587,0.462432l0,0c2.53179,0 5.085251,-0.201465 7.695233,-0.537413l0,0l3.247814,-0.414825l14.205933,16.641403l0,0l0.000007,0.000006zm6.426087,-42.878073l3.106673,4.346893l-19.694795,11.670127l-6.9901,-9.796951l0,0c-2.542756,0.565069 -5.215584,0.897284 -7.996852,0.897284l0,0c-19.245788,0 -34.84022,-14.20713 -34.84022,-31.717973l0,0c0,-17.526541 15.594432,-31.729749 34.84022,-31.729749l0,0c19.224068,0 34.822709,14.203209 34.822709,31.729749l0,0c0,7.196273 -2.655372,13.863132 -7.107172,19.18645l0,0l3.859537,5.414178m-13.249289,1.671485l0.613969,-0.355529l-5.614676,-7.868151l3.254227,-2.964025c4.254517,-3.88468 6.864396,-9.184137 6.864396,-15.084406l0,0c-0.02389,-11.796291 -10.511282,-21.348211 -23.448028,-21.371795l0,0c-12.967214,0.02359 -23.44375,9.563577 -23.465456,21.371795l0,0c0.021706,11.784546 10.509084,21.336234 23.465456,21.360043l0,0c2.894028,0 5.679774,-0.541472 8.376442,-1.481997l0,0l4.299955,-1.501729l5.653714,7.895794l0,0z" stroke-width="1.5" stroke="#000" fill="#fff"/>
 </g>
</svg>