<svg width="800" height="600" xmlns="http://www.w3.org/2000/svg">
 <!-- Created with Method Draw - http://github.com/duopixel/Method-Draw/ -->
 <g>
  <title>background</title>
  <rect fill="#fff" id="canvas_background" height="602" width="802" y="-1" x="-1"/>
  <g display="none" overflow="visible" y="0" x="0" height="100%" width="100%" id="canvasGrid">
   <rect fill="url(#gridpattern)" stroke-width="0" y="0" x="0" height="100%" width="100%"/>
  </g>
 </g>
 <g>
  <title>Layer 1</title>
  <text stroke="#000" transform="matrix(11.64168643951416,0,0,2,-1729.274046421051,-79.5) " xml:space="preserve" text-anchor="start" font-family="Helvetica, Arial, sans-serif" font-size="24" id="svg_1" y="101.5" x="162.5" stroke-width="0" fill="#000000"/>
  <path stroke="#000" id="svg_2" d="m278.975397,48.448885c0,-26.646821 55.147074,-48.230772 123.229686,-48.230772c68.082715,0 123.229584,21.583951 123.229584,48.230772c0,26.646821 -55.14687,48.230772 -123.229584,48.230772c-68.082715,0 -123.229686,-21.583951 -123.229686,-48.230772zm414.319241,136.523884l0,-24.357926c0,-25.628111 -53.052316,-46.407068 -118.570118,-46.407068l-345.420624,0c-65.479857,0 -118.570067,20.778957 -118.570067,46.407068l0,24.357926c-0.1145,0.55288 -0.190953,1.120771 -0.190953,1.696079l0,140.29718c0,10.901292 22.564928,19.732882 50.417692,19.732882c27.814666,0 50.43664,-8.83163 50.43664,-19.732882l0,-138.220002l33.808961,0l0,157.967816l0.248151,0l0,223.203768c0,14.510104 30.105586,26.300522 67.217121,26.300522c37.130687,0 67.217121,-11.775466 67.217121,-26.300522l0,-223.203768l44.346894,0l0,223.203768c0,14.510104 30.124226,26.300522 67.217019,26.300522c37.130534,0 67.216968,-11.775466 67.216968,-26.300522l0,-223.203768l0.210002,0l0,-157.967816l33.809012,0l0,138.212487c0,10.901312 22.621922,19.740378 50.436691,19.740378c27.853122,0 50.417692,-8.839065 50.417692,-19.740378l0,-140.29714c-0.018947,-0.582783 -0.133651,-1.135723 -0.248203,-1.688623l0,0.00002z" stroke-opacity="null" stroke-width="0" fill="#FFA9A2"/>
 </g>
</svg>